<svg width="272" height="128" version="1.0" xmlns="http://www.w3.org/2000/svg" xmlns:xlink="http://www.w3.org/1999/xlink">
	<defs>
		<linearGradient id="linearGradient9111">
			<stop stop-color="#729fcf" offset="0"/>
			<stop stop-color="#fff" offset="1"/>
		</linearGradient>
		<linearGradient id="linearGradient22783">
			<stop offset="0"/>
			<stop stop-color="#fff" offset="1"/>
		</linearGradient>
		<linearGradient id="linearGradient12684">
			<stop stop-color="#fff" offset="0"/>
			<stop stop-color="#fff" stop-opacity=".84536" offset=".35"/>
			<stop stop-color="#fff" stop-opacity="0" offset="1"/>
		</linearGradient>
		<linearGradient id="linearGradient3657">
			<stop stop-color="#fff" offset="0"/>
			<stop stop-color="#fff" stop-opacity="0" offset="1"/>
		</linearGradient>
		<linearGradient id="linearGradient14134" x1="60.812" x2="428.63" y1="222.16" y2="222.16" gradientUnits="userSpaceOnUse">
			<stop stop-color="#8ae234" offset="0"/>
			<stop stop-color="#4e9a06" offset="1"/>
		</linearGradient>
		<radialGradient id="radialGradient14136" cx="244.72" cy="222.16" r="183.91" gradientUnits="userSpaceOnUse">
			<stop stop-color="#fff" stop-opacity=".70103" offset="0"/>
			<stop stop-color="#4e9a06" stop-opacity="0" offset=".8"/>
			<stop stop-color="#8ae234" offset="1"/>
		</radialGradient>
		<radialGradient id="radialGradient14138" cx="49.71" cy="222.16" r="183.91" gradientTransform="matrix(1.3539 0 0 1.3539 -33.889 -78.631)" gradientUnits="userSpaceOnUse" xlink:href="#linearGradient3657"/>
		<radialGradient id="radialGradient14140" cx="69.945" cy="222.16" r="183.91" gradientTransform="matrix(1.3539 0 0 1.3539 -33.889 -78.631)" gradientUnits="userSpaceOnUse" xlink:href="#linearGradient3657"/>
		<linearGradient id="linearGradient14142" x1="98" x2="420" y1="240.92" y2="240.92" gradientTransform="matrix(.54348 -.94133 .94133 .54348 -156.67 314.83)" gradientUnits="userSpaceOnUse" xlink:href="#linearGradient3657"/>
		<linearGradient id="linearGradient14144" x1="98" x2="420" y1="240.92" y2="240.92" gradientTransform="matrix(-.94133 .54348 .54348 .94133 334.23 -173.07)" gradientUnits="userSpaceOnUse" xlink:href="#linearGradient3657"/>
		<linearGradient id="linearGradient14146" x1="98" x2="420" y1="240.92" y2="240.92" gradientTransform="matrix(.94133 -.54348 -.54348 -.94133 150.77 625.27)" gradientUnits="userSpaceOnUse" xlink:href="#linearGradient3657"/>
		<linearGradient id="linearGradient14148" x1="98" x2="420" y1="240.92" y2="240.92" gradientTransform="matrix(-.54348 .94133 -.94133 -.54348 641.67 131.38)" gradientUnits="userSpaceOnUse" xlink:href="#linearGradient3657"/>
		<radialGradient id="radialGradient14150" cx="246.35" cy="226.88" r="154.36" gradientTransform="matrix(1 -.57734 .12401 .2148 -28.136 320.38)" gradientUnits="userSpaceOnUse" xlink:href="#linearGradient3657"/>
		<radialGradient id="radialGradient14152" cx="246.35" cy="226.88" r="154.36" gradientTransform="matrix(-.57734 -1 .2148 -.12401 339.85 501.37)" gradientUnits="userSpaceOnUse" xlink:href="#linearGradient3657"/>
		<radialGradient id="radialGradient14154" cx="156.5" cy="148.5" r="19.5" gradientUnits="userSpaceOnUse" xlink:href="#linearGradient12684"/>
		<linearGradient id="linearGradient14180" x1="70.08" x2="30.155" y1="104.15" y2="72.578" gradientUnits="userSpaceOnUse" xlink:href="#linearGradient9111"/>
		<radialGradient id="radialGradient14182" cx="78.837" cy="65.426" r="36.617" gradientTransform="matrix(.78468 -.35499 .14614 .32303 8.2993 73.274)" gradientUnits="userSpaceOnUse" xlink:href="#linearGradient9111"/>
		<linearGradient id="linearGradient14184" x1="185.18" x2="185.18" y1="178.87" y2="162.24" gradientUnits="userSpaceOnUse" xlink:href="#linearGradient9111"/>
		<radialGradient id="radialGradient14186" cx="185.18" cy="162.24" r="8.3117" gradientTransform="matrix(1.7659 0 0 3.0048 -141.84 -325.26)" gradientUnits="userSpaceOnUse" xlink:href="#linearGradient9111"/>
		<radialGradient id="radialGradient14192" cx="46.133" cy="72.532" r=".28773" gradientTransform="matrix(1 0 0 1.2222 0 -16.118)" gradientUnits="userSpaceOnUse">
			<stop stop-opacity=".70588" offset="0"/>
			<stop stop-opacity=".35294" offset=".4"/>
			<stop stop-opacity="0" offset="1"/>
		</radialGradient>
		<radialGradient id="radialGradient14196" cx="47.305" cy="72.108" r=".50029" gradientTransform="matrix(1.4986 -.015936 .13564 2.3351 -33.436 -95.655)" gradientUnits="userSpaceOnUse" xlink:href="#linearGradient12684"/>
		<radialGradient id="radialGradient14198" cx="67.905" cy="141.29" r="21.289" gradientTransform="matrix(3.2965 -.33565 .16824 1.6523 -177.11 -80.322)" gradientUnits="userSpaceOnUse" xlink:href="#linearGradient9111"/>
		<linearGradient id="linearGradient14200" x1="32.878" x2="82.408" y1="104.45" y2="62.983" gradientUnits="userSpaceOnUse" xlink:href="#linearGradient9111"/>
		<linearGradient id="linearGradient26064" x1="232" x2="232" y1="199.5" y2="133" gradientTransform="matrix(.99319 0 0 1.3184 -286.16 -314.04)" gradientUnits="userSpaceOnUse" xlink:href="#linearGradient22783"/>
		<mask id="mask26060" maskUnits="userSpaceOnUse">
			<rect transform="scale(1,-1)" x="-55.736" y="-103.08" width="271.14" height="72.514" fill="url(#linearGradient26064)"/>
		</mask>
		<linearGradient id="linearGradient6466" x1="229.09" x2="229.09" y1="86.978" y2="56.825" gradientTransform="matrix(.95427 0 0 .95965 9.0766 -.017274)" gradientUnits="userSpaceOnUse" xlink:href="#linearGradient22783"/>
		<mask id="mask6462" maskUnits="userSpaceOnUse">
			<path d="m148.22-0.4375v61.625c5.0625 0.6875 9.6231 4.128 9 15.438-0.0917 1.6639-1.0625 1.3125-9 1.3125v4.125c3.3125 0.0625 4.3527-1.2756 6.3241-1.6061 1.6877-0.28292 1.9474 0.90106 1.9884 2.5436 0.0551 2.2094 0.0141 3.595-2.0056 4.4871-1.4719 0.65016-3.4944 1.2629-6.3069 1.5129v56.937h167.5v-56.884c-8.5295 0.04419-9.6876 0.17832-8.7353-1.2299 0.82304-1.217 2.062-2.615 8.7353-13.664v-7.513c-4.552-7.292-6.3886-10.143-7.5269-12.047-0.66523-1.1125 1.4281-0.99058 7.5269-0.90219v-54.136zm30.832 52.22c2.5428 0.03249 4.0738 0.62253 4.0738 2.7508 0 8.5895 0.0884 16.383 0.0884 24.708 0 7.1194 0.29997 9.1598-2.1535 9.78-0.85675 0.21658-4.1512 0.38731-4.8644-0.1778-1.5435-1.2229-1.6615 0.47461-6.6459 0.39866-9.2449-0.14085-12.167-7.764-12.005-15.282 0.19621-9.128 6.915-15.458 14.967-12.919 2.6749 0.84329 2.0592-0.46058 2.138-6.4961 0.0248-1.8961 2.058-2.792 4.4026-2.762zm80.55 25.952c-3.0481 0.05534-9.4955-0.04915-12.661-0.0652-2.0238-0.01026-2.1902-0.46081-1.8984 0.83978 0.85763 3.8222 5.6758 5.0347 12.188 2.3438 2.1222-0.877 3.1843-1.2045 3.8215 0.70999 0.23151 0.69556-0.0138 2.0853 0.0222 3.3525 0.0872 3.0622-1.5491 3.3457-3.2125 3.7528-16.407 4.0153-21.969-4.8466-21.867-13.606 0.0998-8.526 4.9988-14.041 13.068-14.161s13.74 4.5523 12.919 14.896c-0.1712 2.1571-1.0142 1.9128-2.38 1.9376zm-48.778-2.3192c-0.038 10.902-6.308 14.094-13.207 14.008-4.6099-0.05753-12.219-1.3734-12.481-14.727-0.21864-11.164 7.1842-14.311 12.83-14.366 5.773-0.0558 12.898 3.6386 12.858 15.084zm67.917-15.536c0.0274-6.4373 0.22462-6.6024 4.893-6.5806 4.4559 0.02078 4.5193 0.59035 4.6145 5.249 0.32047 15.681-1.3037 23.065 5.1591 23 6.4754-0.06582 5.1368-6.9056 5.3066-23.282 0.0447-4.3107 0.11549-4.8255 4.2946-4.7365 4.4389 0.09454 4.5925 0.34941 4.5214 6.3876-0.21113 17.931 2.896 29.396-14.204 29.364-16.088-0.02973-14.664-10.888-14.585-29.402zm-65.511 1.1923c3.1033-0.01303 4.8201-0.01471 5.5625 2.25 3.5018 10.682 4.362 14.359 5.3125 11.625 1.1904-3.4235 3.4359-9.3368 4.1929-11.662 0.79541-2.4436 1.8775-2.2752 5.0704-2.2886 3.3222-0.01396 4.7012 0.51174 3.7367 3.076-4.1099 10.926-5.2978 14.435-9.0344 23.471-0.65536 1.5847-1.1405 1.3709-4.5748 1.3958-3.6701 0.02665-4.3148 0.06395-4.797-1.2417-3.0796-8.3402-5.7355-14.986-8.4375-23.5-0.75253-2.3713 0.50644-3.1147 2.9688-3.125zm61.281 17.316c-3.7071 0.05213-5.016 0.11728-8.8529 0.02048-2.5039-0.06317-3.1217-0.50573-3.0991-3.3452 0.0271-3.4109 0.86048-3.7867 3.0777-3.7936 4.013-0.01235 6.5104-0.09568 8.9905 0.0043 2.4663 0.09941 2.8342 0.61682 2.8914 3.8303 0.0452 2.5423-0.47664 3.2481-3.0075 3.2837zm-24.812-10.503c-2.2931 0.02397-4.2757 0.97045-4.8439 3.3673-0.13757 0.5803 1.2633 0.57593 4.9689 0.5389 3.3911-0.03389 4.6211 0.23789 4.5081-0.49119-0.26019-1.6789-1.7232-3.4455-4.6331-3.4151zm-79.173 0.25222c-4.7701 0.30374-5.2574 8.5642-3.3147 11.688 3.2007 5.1474 7.9325 1.1356 7.8804-4.9589-0.0356-4.1622-1.4107-6.9304-4.5656-6.7295zm27.392-0.09597c-2.895-0.21541-4.5542 2.5189-4.5625 6.9062-0.01 5.1165 1.8314 6.8871 4.0591 7.0304 3.2072 0.20631 5.0457-1.7988 4.9409-6.9992-0.0818-4.0568-1.1695-6.6943-4.4375-6.9375z" fill="url(#linearGradient6466)"/>
		</mask>
		<linearGradient id="linearGradient18050" x1="142.92" x2="141.96" y1="127.88" y2="-1.012" gradientTransform="matrix(1 0 0 1 .0010343 -.0013662)" gradientUnits="userSpaceOnUse">
			<stop stop-color="#fff" offset="0"/>
			<stop stop-color="#fff" offset=".25553"/>
			<stop stop-color="#c4d3d3" offset=".48911"/>
			<stop stop-color="#c4d3d3" offset=".6184"/>
			<stop stop-color="#fff" offset="1"/>
		</linearGradient>
	</defs>
	<rect y="-1.0119e-14" width="272" height="128" fill="url(#linearGradient18050)"/>
	<g transform="translate(-93.24 1.9997)" mask="url(#mask6462)">
		<g transform="matrix(1.3818 .0037042 -.0037042 1.3818 161.38 -19.228)">
			<path transform="matrix(0 -.26261 .26261 0 -9.0455 133.71)" d="m428.63 222.16a183.91 183.91 0 1 1 -367.82 0 183.91 183.91 0 1 1 367.82 0z" fill="#4e9a06" stroke="#4e9a06" stroke-linejoin="round" stroke-width="7.6159"/>
			<path transform="matrix(0 -.26261 .26261 0 -9.0455 133.71)" d="m428.63 222.16a183.91 183.91 0 1 1 -367.82 0 183.91 183.91 0 1 1 367.82 0z" fill="url(#linearGradient14134)"/>
			<path transform="matrix(0 -.26261 .26261 0 -9.0455 133.71)" d="m428.63 222.16a183.91 183.91 0 1 1 -367.82 0 183.91 183.91 0 1 1 367.82 0z" fill="url(#radialGradient14136)"/>
			<path transform="matrix(0 .1912 .1912 0 6.8178 10.502)" d="m428.63 222.16a183.91 183.91 0 1 1 -367.82 0 183.91 183.91 0 1 1 367.82 0z" fill="url(#radialGradient14138)"/>
			<path transform="matrix(0 -.15336 .2062 0 3.4869 125.68)" d="m428.63 222.16a183.91 183.91 0 1 1 -367.82 0 183.91 183.91 0 1 1 367.82 0z" fill="url(#radialGradient14140)"/>
			<g transform="matrix(.26261 0 0 .26261 -14.97 11.104)" fill-rule="evenodd" opacity=".5">
				<path d="m201.58 398.67s-175.99-177.97 32.579-358.78c-235.8 180.15-32.036 357.84-32.579 358.78z" fill="url(#linearGradient14142)"/>
				<path d="m418.06 185.19s-177.97-175.99-358.78 32.58c180.15-235.8 357.84-32.036 358.78-32.58z" fill="url(#linearGradient14144)"/>
				<path d="m66.938 267.02s177.97 175.99 358.78-32.58c-180.15 235.8-357.84 32.036-358.78 32.58z" fill="url(#linearGradient14146)"/>
				<path d="m283.42 47.542s175.99 177.97-32.579 358.78c235.8-180.15 32.036-357.84 32.579-358.78z" fill="url(#linearGradient14148)"/>
				<path d="m92 316s170.42-72.468 308.71-178.23c-161.71 68.234-309.71 178.23-308.71 178.23z" fill="url(#radialGradient14150)"/>
				<path d="m335.47 381.24s-72.468-170.42-178.23-308.71c68.234 161.71 178.23 309.71 178.23 308.71z" fill="url(#radialGradient14152)"/>
			</g>
			<g fill="url(#radialGradient14154)">
				<path transform="matrix(.49155 0 0 .49155 -27.164 -2.1472)" d="m176 148.5a19.5 19.5 0 1 1 -39 0 19.5 19.5 0 1 1 39 0z"/>
				<path transform="matrix(.20874 0 0 .20874 41.518 14.902)" d="m176 148.5a19.5 19.5 0 1 1 -39 0 19.5 19.5 0 1 1 39 0z"/>
				<path transform="matrix(.12794 0 0 .12794 63.88 31.891)" d="m176 148.5a19.5 19.5 0 1 1 -39 0 19.5 19.5 0 1 1 39 0z"/>
				<path transform="matrix(.26261 0 0 .26261 -6.8289 4.8018)" d="m176 148.5a19.5 19.5 0 1 1 -39 0 19.5 19.5 0 1 1 39 0z"/>
				<path transform="matrix(.26261 0 0 .26261 35.713 15.306)" d="m176 148.5a19.5 19.5 0 1 1 -39 0 19.5 19.5 0 1 1 39 0z"/>
				<path transform="matrix(.26261 0 0 .26261 23.371 57.848)" d="m176 148.5a19.5 19.5 0 1 1 -39 0 19.5 19.5 0 1 1 39 0z"/>
				<path transform="matrix(.26261 0 0 .26261 -20.222 48.132)" d="m176 148.5a19.5 19.5 0 1 1 -39 0 19.5 19.5 0 1 1 39 0z"/>
				<path transform="matrix(.20874 0 0 .20874 40.205 63.747)" d="m176 148.5a19.5 19.5 0 1 1 -39 0 19.5 19.5 0 1 1 39 0z"/>
				<path transform="matrix(.12794 0 0 .12794 46.81 83.887)" d="m176 148.5a19.5 19.5 0 1 1 -39 0 19.5 19.5 0 1 1 39 0z"/>
				<path transform="matrix(.20874 0 0 .20874 -8.115 64.797)" d="m176 148.5a19.5 19.5 0 1 1 -39 0 19.5 19.5 0 1 1 39 0z"/>
				<path transform="matrix(.20874 0 0 .20874 -8.115 15.953)" d="m176 148.5a19.5 19.5 0 1 1 -39 0 19.5 19.5 0 1 1 39 0z"/>
				<path transform="matrix(.12794 0 0 .12794 -4.9233 71.807)" d="m176 148.5a19.5 19.5 0 1 1 -39 0 19.5 19.5 0 1 1 39 0z"/>
				<path transform="matrix(.12794 0 0 .12794 10.57 18.498)" d="m176 148.5a19.5 19.5 0 1 1 -39 0 19.5 19.5 0 1 1 39 0z"/>
			</g>
		</g>
		<g transform="matrix(1.2796 .52158 -.52158 1.2796 182.95 -68.578)">
			<g fill-rule="evenodd">
				<path d="m24.945 51.124c-0.18093 0.14323-0.38186 0.34367-0.62133 0.61132-3.8316 4.2824-2.2792 12.177-2.2792 12.177-1e-6 -3e-6 -1.326-8.0997-2.9037-3.5919s2.4815 11.486 2.4815 11.486c-2e-6 -4e-6 -4.5078-7.6669-3.6062-2.9337 0.90156 4.7332 5.4116 9.6856 5.4116 9.6856s-3.8377-4.285-3.3869-0.67874c0.45078 3.6062 7.4209 6.5409 7.4209 6.5409 2e-6 0-5.8552 1.1522-2.0235 4.3076 3.8316 3.1555 11.731 0.44391 11.731 0.44391s-6.0881 4.9332 0.2228 6.5109c1.8196 0.4549 3.6117 0.48302 5.2534 0.2867 0.56104 1.1148 1.1369 2.2192 1.7667 3.3101 12.167 21.074 46.08 12.07 48.361-16.049 5.829 0.74739 16.104-4.1793 17.052-7.7158 0.89205-3.3292-4.4875-1.3216-6.0104-0.53528 1.4103-0.78585 7.2838-3.7955 5.1665-7.9264-1.451-2.831-4.3637-0.44927-6.4916 1.9437-1.2376 1.8522-2.5475 3.275-2.5475 3.275-3e-6 1e-6 1.0916-1.6377 2.5475-3.275 1.8407-2.7549 3.4926-6.4853 0.25149-7.9394-2.067-0.92731-3.6184 0.39137-4.7456 2.3429-0.46138 3.4348-2.3809 6.7512-2.3809 6.7512 2e-6 -1e-6 0.55225-3.5852 2.3809-6.7512 0.29853-2.2225-0.1191-4.1305-2.1749-3.5796-0.80092 0.21461-1.7265 0.40249-2.6796 0.60885 0.93236-1.293 4.8868-7.0836 3.3947-10.62-1.677-3.975-3.0579 2.7036-3.0579 2.7036-3e-6 2e-6 1.6805-7.7613-0.20202-13.162-1.8825-5.4011-1.9733 5.1447-1.9733 5.1447-3e-6 1e-6 0.02902-9.5706-4.2686-13.268-4.2976-3.6978-0.8634 5.442-0.8634 5.442-3e-6 1e-6 -3.0809-9.0583-9.5618-11.187-1.0126-0.33254-1.5701-0.37993-1.8147-0.14309-1.3205 1.2789 6.8657 10.555 6.2835 24.446-0.66251 15.808-23.628 16.518-21.123 32.727-2.3959-0.81842-3.6985-3.5567-3.1243-9.5989 0.96103-10.112-8.9597-12.545-12.895-10.272-4.7397 2.7365-6.7167 7.6915-6.7148 13.62-2.2945-0.95074-4.3398-2.4497-5.9098-4.9235-6.973-10.988-3.6515-22.361-6.3654-20.213z" fill="#3465a4" stroke="#3465a4" stroke-linecap="round" stroke-linejoin="round" stroke-width="2"/>
				<g stroke="#729fcf">
					<g stroke-linecap="round" stroke-linejoin="round" stroke-width=".5">
						<path d="m61.057 88.034c-4.1256-15.397-22.314-4.9586-29.751-16.679s-3.1555-23.891-6.9871-19.609c-3.8316 4.2824-2.2539 12.171-2.2539 12.171s-1.3523-8.114-2.9301-3.6062c-1.5777 4.5078 2.4793 11.495 2.4793 11.495s-4.5078-7.6632-3.6062-2.9301c0.90156 4.7332 5.4094 9.6918 5.4094 9.6918s-3.8316-4.2824-3.3808-0.67617c0.45078 3.6062 7.4379 6.5363 7.4379 6.5363s-5.8601 1.1269-2.0285 4.2824 11.72 0.45078 11.72 0.45078-6.0855 4.9586 0.22539 6.5363c6.3109 1.5777 12.396-2.0285 12.396-2.0285s-2.4793 5.8601 3.8316 5.4093c6.3109-0.45078 8.9599-5.3636 7.4379-11.044z" fill="url(#linearGradient14180)"/>
						<path d="m74.801 25.333c-1.3205 1.2789 6.8657 10.555 6.2835 24.446-0.66251 15.808-23.628 16.518-21.123 32.727-2.3959-0.81842-3.6985-3.5567-3.1243-9.5989 0.96103-10.112-8.9597-12.545-12.895-10.272-10.347 5.974-7.6544 22.555 0.47711 36.639 12.167 21.074 46.08 12.07 48.361-16.049 5.829 0.74739 16.108-4.1795 17.056-7.7159 0.89205-3.3292-4.4972-1.3229-6.0201-0.53657 1.4103-0.78586 7.2891-3.7941 5.1718-7.925-1.451-2.831-4.3637-0.44927-6.4916 1.9437-1.2376 1.8522-2.5475 3.275-2.5475 3.275 0 1e-6 1.0916-1.6377 2.5475-3.275 1.8407-2.7549 3.4926-6.4853 0.25147-7.9394-2.067-0.92732-3.6184 0.39136-4.7456 2.3429-0.46137 3.4348-2.3809 6.7512-2.3809 6.7512 7e-6 1e-6 0.55225-3.5852 2.3809-6.7512 0.29854-2.2225-0.1191-4.1305-2.1749-3.5796-0.80092 0.2146-1.7265 0.40249-2.6796 0.60885 0.93237-1.293 4.8868-7.0836 3.3947-10.62-1.677-3.975-3.0578 2.7036-3.0578 2.7036s1.6805-7.7613-0.20203-13.162c-1.8825-5.4011-1.9733 5.1446-1.9733 5.1446s0.02902-9.5706-4.2686-13.268c-4.2976-3.6978-0.8634 5.442-0.8634 5.442s-3.0809-9.0583-9.5618-11.187c-1.0126-0.33254-1.5701-0.37993-1.8147-0.14309z" fill="url(#radialGradient14182)"/>
						<path d="m60.4 84.589c-4.8974-18.277 19.996-18.342 20.686-34.806 0.68999-16.464-10.937-26.434-4.4557-24.306 6.4809 2.1283 9.5412 11.175 9.5412 11.175s-3.4258-9.1443 0.87179-5.4465c4.2976 3.6978 4.2739 13.289 4.2739 13.289s0.08575-10.554 1.9683-5.1527c1.8825 5.4011 0.19141 13.174 0.19141 13.174s1.3973-6.6768 3.0743-2.7018-3.7669 11.134-3.7669 11.134 6.6934-2.3197 4.6272 3.1985-11.781 7.4199-11.781 7.4199 9.1994 1.4856 3.6479 6.8534-13.948 5.2724-13.948 5.2724" fill="#fff"/>
					</g>
					<path d="m46.322 72.009c-0.64837 0.05705-1.3559 0.17549-2.2007 0.41837 1.2302 0.39633 2.1563 1.4664 2.6362 2.4301 1.1482-1.0966 1.0398-1.7824 2.7774-2.1573-0.6337-0.39451-1.299-0.6556-2.082-0.72809-0.52216-0.68171-0.56035-0.11324-1.131 0.03698z" fill="#555753" stroke-width=".25"/>
				</g>
				<path d="m41.722 65.587s4.3268 1.0682 2.5939 5.2337c-3.9503-1.6433 1.43-3.5597-2.5939-5.2337z" fill="#729fcf"/>
			</g>
			<g transform="matrix(.13375 .05564 -.05564 .13375 27.22 35.072)">
				<path transform="matrix(1.396 0 0 1.396 -71.556 -66.826)" d="m193.5 170.56a8.3117 8.3117 0 1 1 -16.623 0 8.3117 8.3117 0 1 1 16.623 0z"/>
				<path transform="matrix(.55042 0 0 .25629 85.038 134.22)" d="m193.5 170.56a8.3117 8.3117 0 1 1 -16.623 0 8.3117 8.3117 0 1 1 16.623 0z" fill="url(#linearGradient14184)"/>
				<path transform="matrix(.86905 0 0 .48914 26.032 83.33)" d="m193.5 170.56a8.3117 8.3117 0 1 1 -16.623 0 8.3117 8.3117 0 1 1 16.623 0z" fill="url(#radialGradient14186)"/>
			</g>
			<path d="m54.199 67.249s-4.4555-0.1017-3.8735 4.3722c4.2427-0.55196-0.44831-3.8099 3.8735-4.3722z" fill="#729fcf" fill-rule="evenodd"/>
			<g transform="matrix(-.14365 .018688 .018688 .14365 76.184 41.594)">
				<path transform="matrix(1.396 0 0 1.396 -71.556 -66.826)" d="m193.5 170.56a8.3117 8.3117 0 1 1 -16.623 0 8.3117 8.3117 0 1 1 16.623 0z"/>
				<path transform="matrix(.55042 0 0 .25629 85.038 134.22)" d="m193.5 170.56a8.3117 8.3117 0 1 1 -16.623 0 8.3117 8.3117 0 1 1 16.623 0z" fill="url(#linearGradient14184)"/>
				<path transform="matrix(.86905 0 0 .48914 26.032 83.33)" d="m193.5 170.56a8.3117 8.3117 0 1 1 -16.623 0 8.3117 8.3117 0 1 1 16.623 0z" fill="url(#radialGradient14186)"/>
			</g>
			<path transform="rotate(-5.0574 45.563 69.741)" d="m46.421 72.532a0.28773 0.35167 0 1 1 -0.57546 0 0.28773 0.35167 0 1 1 0.57546 0z" fill="url(#radialGradient14192)"/>
			<path transform="rotate(9.3408 46.871 81.57)" d="m46.421 72.532a0.28773 0.35167 0 1 1 -0.57546 0 0.28773 0.35167 0 1 1 0.57546 0z" fill="url(#radialGradient14192)"/>
			<path transform="matrix(.6324 .047001 -.10985 1.4781 25.072 -37.293)" d="m47.796 72.859a0.50029 0.50029 0 1 1 -1.0006 0 0.50029 0.50029 0 1 1 1.0006 0z" fill="url(#radialGradient14196)"/>
			<path d="m70.368 108.74c9.8261-2.7878 14.983-8.0268 18.194-14.983 3.2107-6.9565-8.2943 8.8294-8.2943 8.8294s4.8161-12.308 1.8729-10.702c-2.9431 1.6054-6.1538 12.575-6.1538 12.575s0.53512-13.378-1.3378-10.435c-1.8729 2.9431-3.7458 12.308-3.7458 12.308s-1.8729-13.378-3.7458-9.8997-0.53512 10.97-0.53512 10.97-6.689-14.181-6.689-10.435 1.8729 10.435 1.8729 10.435-7.7592-12.843-8.2943-10.702 2.6756 9.097 2.6756 9.097-9.8997-12.04-9.6321-8.5619c0.26756 3.4783 9.5954 15.539 23.813 11.505z" fill="url(#radialGradient14198)" fill-rule="evenodd"/>
			<path d="m67.692 81.712s-1.8729-4.0134 3.7458-8.8294c5.6187-4.8161 9.8997-7.2241 10.97-9.8997-5.3512 8.5619-13.11 11.773-12.04 14.716 1.0702 2.9431-2.408 4.0134-2.6756 4.0134z" fill="url(#linearGradient14200)" fill-rule="evenodd"/>
		</g>
	</g>
	<g transform="translate(-.0029432 -9.1065)" font-family="'DejaVu Sans'" font-size="42.667px" letter-spacing="0px" text-anchor="middle" word-spacing="0px">
		<g fill="#73d216">
			<text x="158.25546" y="97.824837" display="none" text-align="center" style="line-height:1.25" xml:space="preserve"><tspan x="158.25545" y="97.824837" fill="#73d216">iceweasel-UXP</tspan></text>
			<text x="33.589626" y="97.824837" text-align="center" style="line-height:1.25" xml:space="preserve"><tspan x="33.589626" y="97.824837" fill="#73d216">ice</tspan></text>
			<text x="219.88432" y="97.824837" text-align="center" style="line-height:1.25" xml:space="preserve"><tspan x="219.88432" y="97.824837" fill="#73d216">-UXP</tspan></text>
		</g>
		<text x="116.7165" y="97.824837" fill="#73a0d0" text-align="center" style="line-height:1.25" xml:space="preserve"><tspan x="116.7165" y="97.824837">dove</tspan></text>
	</g>
	<g transform="matrix(.060529 0 0 .060529 .9777 48.141)">
		<path transform="matrix(0 -.52521 .52521 0 11.422 267.42)" d="m428.63 222.16a183.91 183.91 0 1 1 -367.82 0 183.91 183.91 0 1 1 367.82 0z" fill="#4e9a06" stroke="#4e9a06" stroke-linejoin="round" stroke-width="7.6159"/>
		<path transform="matrix(0 -.52521 .52521 0 11.422 267.42)" d="m428.63 222.16a183.91 183.91 0 1 1 -367.82 0 183.91 183.91 0 1 1 367.82 0z" fill="url(#linearGradient14134)"/>
		<path transform="matrix(0 -.52521 .52521 0 11.422 267.42)" d="m428.63 222.16a183.91 183.91 0 1 1 -367.82 0 183.91 183.91 0 1 1 367.82 0z" fill="url(#radialGradient14136)"/>
		<path transform="matrix(0 .3824 .3824 0 43.148 21.005)" d="m428.63 222.16a183.91 183.91 0 1 1 -367.82 0 183.91 183.91 0 1 1 367.82 0z" fill="url(#radialGradient14138)"/>
		<path transform="matrix(0 -.30672 .41239 0 36.487 251.36)" d="m428.63 222.16a183.91 183.91 0 1 1 -367.82 0 183.91 183.91 0 1 1 367.82 0z" fill="url(#radialGradient14140)"/>
		<g transform="matrix(.52521 0 0 .52521 -.4267 22.209)" fill-rule="evenodd" opacity=".5">
			<path d="m201.58 398.67s-175.99-177.97 32.579-358.78c-235.8 180.15-32.036 357.84-32.579 358.78z" fill="url(#linearGradient14142)"/>
			<path d="m418.06 185.19s-177.97-175.99-358.78 32.58c180.15-235.8 357.84-32.036 358.78-32.58z" fill="url(#linearGradient14144)"/>
			<path d="m66.938 267.02s177.97 175.99 358.78-32.58c-180.15 235.8-357.84 32.036-358.78 32.58z" fill="url(#linearGradient14146)"/>
			<path d="m283.42 47.542s175.99 177.97-32.579 358.78c235.8-180.15 32.036-357.84 32.579-358.78z" fill="url(#linearGradient14148)"/>
			<path d="m92 316s170.42-72.468 308.71-178.23c-161.71 68.234-309.71 178.23-308.71 178.23z" fill="url(#radialGradient14150)"/>
			<path d="m335.47 381.24s-72.468-170.42-178.23-308.71c68.234 161.71 178.23 309.71 178.23 308.71z" fill="url(#radialGradient14152)"/>
		</g>
		<g fill="url(#radialGradient14154)">
			<path transform="matrix(.98309 0 0 .98309 -24.815 -4.2943)" d="m176 148.5a19.5 19.5 0 1 1 -39 0 19.5 19.5 0 1 1 39 0z"/>
			<path transform="matrix(.41748 0 0 .41748 112.55 29.804)" d="m176 148.5a19.5 19.5 0 1 1 -39 0 19.5 19.5 0 1 1 39 0z"/>
			<path transform="matrix(.25587 0 0 .25587 157.27 63.782)" d="m176 148.5a19.5 19.5 0 1 1 -39 0 19.5 19.5 0 1 1 39 0z"/>
			<path transform="matrix(.52521 0 0 .52521 15.855 9.6037)" d="m176 148.5a19.5 19.5 0 1 1 -39 0 19.5 19.5 0 1 1 39 0z"/>
			<path transform="matrix(.52521 0 0 .52521 100.94 30.612)" d="m176 148.5a19.5 19.5 0 1 1 -39 0 19.5 19.5 0 1 1 39 0z"/>
			<path transform="matrix(.52521 0 0 .52521 76.255 115.7)" d="m176 148.5a19.5 19.5 0 1 1 -39 0 19.5 19.5 0 1 1 39 0z"/>
			<path transform="matrix(.52521 0 0 .52521 -10.931 96.264)" d="m176 148.5a19.5 19.5 0 1 1 -39 0 19.5 19.5 0 1 1 39 0z"/>
			<path transform="matrix(.41748 0 0 .41748 109.92 127.49)" d="m176 148.5a19.5 19.5 0 1 1 -39 0 19.5 19.5 0 1 1 39 0z"/>
			<path transform="matrix(.25587 0 0 .25587 123.13 167.77)" d="m176 148.5a19.5 19.5 0 1 1 -39 0 19.5 19.5 0 1 1 39 0z"/>
			<path transform="matrix(.41748 0 0 .41748 13.283 129.59)" d="m176 148.5a19.5 19.5 0 1 1 -39 0 19.5 19.5 0 1 1 39 0z"/>
			<path transform="matrix(.41748 0 0 .41748 13.283 31.905)" d="m176 148.5a19.5 19.5 0 1 1 -39 0 19.5 19.5 0 1 1 39 0z"/>
			<path transform="matrix(.25587 0 0 .25587 19.666 143.61)" d="m176 148.5a19.5 19.5 0 1 1 -39 0 19.5 19.5 0 1 1 39 0z"/>
			<path transform="matrix(.25587 0 0 .25587 50.654 36.996)" d="m176 148.5a19.5 19.5 0 1 1 -39 0 19.5 19.5 0 1 1 39 0z"/>
		</g>
	</g>
	<g transform="matrix(1 0 0 -.71677 56.16 154.53)" mask="url(#mask26060)">
		<g transform="translate(-56.163 -9.1062)" font-family="'DejaVu Sans'" font-size="42.667px" letter-spacing="0px" text-anchor="middle" word-spacing="0px">
			<text x="158.25546" y="97.824837" display="none" fill="#2715d2" text-align="center" style="line-height:1.25" xml:space="preserve"><tspan x="158.25545" y="97.824837">iceweasel-UXP</tspan></text>
			<text x="33.589626" y="97.824837" fill="#73d216" text-align="center" style="line-height:1.25" xml:space="preserve"><tspan x="33.589626" y="97.824837" fill="#73d216">ice</tspan></text>
			<text x="219.88432" y="97.824837" fill="#73d216" text-align="center" style="line-height:1.25" xml:space="preserve"><tspan x="219.88432" y="97.824837" fill="#73d216">-UXP</tspan></text>
			<text x="116.7165" y="97.824837" fill="#73a0d0" text-align="center" style="line-height:1.25" xml:space="preserve"><tspan x="116.7165" y="97.824837">dove</tspan></text>
		</g>
		<g transform="matrix(.060529 0 0 .060529 -55.182 48.141)">
			<path transform="matrix(0 -.52521 .52521 0 11.422 267.42)" d="m428.63 222.16a183.91 183.91 0 1 1 -367.82 0 183.91 183.91 0 1 1 367.82 0z" fill="#4e9a06" stroke="#4e9a06" stroke-linejoin="round" stroke-width="7.6159"/>
			<path transform="matrix(0 -.52521 .52521 0 11.422 267.42)" d="m428.63 222.16a183.91 183.91 0 1 1 -367.82 0 183.91 183.91 0 1 1 367.82 0z" fill="url(#linearGradient14134)"/>
			<path transform="matrix(0 -.52521 .52521 0 11.422 267.42)" d="m428.63 222.16a183.91 183.91 0 1 1 -367.82 0 183.91 183.91 0 1 1 367.82 0z" fill="url(#radialGradient14136)"/>
			<path transform="matrix(0 .3824 .3824 0 43.148 21.005)" d="m428.63 222.16a183.91 183.91 0 1 1 -367.82 0 183.91 183.91 0 1 1 367.82 0z" fill="url(#radialGradient14138)"/>
			<path transform="matrix(0 -.30672 .41239 0 36.487 251.36)" d="m428.63 222.16a183.91 183.91 0 1 1 -367.82 0 183.91 183.91 0 1 1 367.82 0z" fill="url(#radialGradient14140)"/>
			<g transform="matrix(.52521 0 0 .52521 -.4267 22.209)" fill-rule="evenodd" opacity=".5">
				<path d="m201.58 398.67s-175.99-177.97 32.579-358.78c-235.8 180.15-32.036 357.84-32.579 358.78z" fill="url(#linearGradient14142)"/>
				<path d="m418.06 185.19s-177.97-175.99-358.78 32.58c180.15-235.8 357.84-32.036 358.78-32.58z" fill="url(#linearGradient14144)"/>
				<path d="m66.938 267.02s177.97 175.99 358.78-32.58c-180.15 235.8-357.84 32.036-358.78 32.58z" fill="url(#linearGradient14146)"/>
				<path d="m283.42 47.542s175.99 177.97-32.579 358.78c235.8-180.15 32.036-357.84 32.579-358.78z" fill="url(#linearGradient14148)"/>
				<path d="m92 316s170.42-72.468 308.71-178.23c-161.71 68.234-309.71 178.23-308.71 178.23z" fill="url(#radialGradient14150)"/>
				<path d="m335.47 381.24s-72.468-170.42-178.23-308.71c68.234 161.71 178.23 309.71 178.23 308.71z" fill="url(#radialGradient14152)"/>
			</g>
			<g fill="url(#radialGradient14154)">
				<path transform="matrix(.98309 0 0 .98309 -24.815 -4.2943)" d="m176 148.5a19.5 19.5 0 1 1 -39 0 19.5 19.5 0 1 1 39 0z"/>
				<path transform="matrix(.41748 0 0 .41748 112.55 29.804)" d="m176 148.5a19.5 19.5 0 1 1 -39 0 19.5 19.5 0 1 1 39 0z"/>
				<path transform="matrix(.25587 0 0 .25587 157.27 63.782)" d="m176 148.5a19.5 19.5 0 1 1 -39 0 19.5 19.5 0 1 1 39 0z"/>
				<path transform="matrix(.52521 0 0 .52521 15.855 9.6037)" d="m176 148.5a19.5 19.5 0 1 1 -39 0 19.5 19.5 0 1 1 39 0z"/>
				<path transform="matrix(.52521 0 0 .52521 100.94 30.612)" d="m176 148.5a19.5 19.5 0 1 1 -39 0 19.5 19.5 0 1 1 39 0z"/>
				<path transform="matrix(.52521 0 0 .52521 76.255 115.7)" d="m176 148.5a19.5 19.5 0 1 1 -39 0 19.5 19.5 0 1 1 39 0z"/>
				<path transform="matrix(.52521 0 0 .52521 -10.931 96.264)" d="m176 148.5a19.5 19.5 0 1 1 -39 0 19.5 19.5 0 1 1 39 0z"/>
				<path transform="matrix(.41748 0 0 .41748 109.92 127.49)" d="m176 148.5a19.5 19.5 0 1 1 -39 0 19.5 19.5 0 1 1 39 0z"/>
				<path transform="matrix(.25587 0 0 .25587 123.13 167.77)" d="m176 148.5a19.5 19.5 0 1 1 -39 0 19.5 19.5 0 1 1 39 0z"/>
				<path transform="matrix(.41748 0 0 .41748 13.283 129.59)" d="m176 148.5a19.5 19.5 0 1 1 -39 0 19.5 19.5 0 1 1 39 0z"/>
				<path transform="matrix(.41748 0 0 .41748 13.283 31.905)" d="m176 148.5a19.5 19.5 0 1 1 -39 0 19.5 19.5 0 1 1 39 0z"/>
				<path transform="matrix(.25587 0 0 .25587 19.666 143.61)" d="m176 148.5a19.5 19.5 0 1 1 -39 0 19.5 19.5 0 1 1 39 0z"/>
				<path transform="matrix(.25587 0 0 .25587 50.654 36.996)" d="m176 148.5a19.5 19.5 0 1 1 -39 0 19.5 19.5 0 1 1 39 0z"/>
			</g>
		</g>
	</g>
</svg>
